<svg xmlns="http://www.w3.org/2000/svg" width="223" height="103" viewBox="0 0 223 103">
    <g fill="none" fill-rule="evenodd">
        <path fill="#FFFCFC" fill-rule="nonzero" d="M64.288 1.011v69.776H41.586V45H22.702v25.787H0V1.01h22.702v25.281h18.884V1.012h22.702zM146.155 45l6.53 18.202C150.173 65.73 143.142 72 128.075 72c-20.593 0-37.167-12.742-37.167-36s16.574-36 37.166-36c15.57 0 23.104 6.573 23.104 6.573l-6.027 19.214s-7.032-6.068-15.57-6.068-15.871 5.056-15.871 15.978c0 10.82 7.835 15.674 15.871 15.674 8.036 0 13.56-3.337 16.574-6.371zm52.938-15.876L223 70.787h-27.122l-11.551-23.259-4.018 5.056v18.203h-22.602V1.01h22.602v21.236l14.565-21.236h26.62l-22.401 28.113z"/>
        <path fill="#FF5D5D" stroke="#F36666" d="M93 1L76.461 43.135H93L62.41 103l6.824-49.016H42L62.41 1z"/>
    </g>
</svg>
